<svg aria-hidden="true" style="position: absolute; width: 0; height: 0; overflow: hidden;" version="1.1" xmlns="http://www.w3.org/2000/svg" xmlns:xlink="http://www.w3.org/1999/xlink">
<defs>
<symbol id="cap" viewBox="0 0 32 32">
<path d="M8.777 10.111h0.902v11.779h-0.902v-11.779z"></path>
<path d="M16.966 10.111h0.924v11.779h-0.924v-11.779z"></path>
<path d="M23.223 5.333v3.444h3.444c1.041 0 1.89 0.848 1.89 1.889v10.667c0 1.041-0.848 1.89-1.889 1.89h-3.444v2.111c0 1.776-1.447 3.223-3.223 3.223h-13.333c-1.776 0-3.223-1.447-3.223-3.223v-20c0-0.307 0.249-0.556 0.556-0.556h18.667c0.308 0 0.556 0.249 0.556 0.556zM22.11 25.333v-19.444h-17.554v19.444c0 1.163 0.945 2.11 2.11 2.11h13.333c1.166 0 2.11-0.947 2.11-2.11zM23.223 22.111h4.221v-12.221h-4.221v12.221z"></path>
</symbol>
<symbol id="bus" viewBox="0 0 32 32">
<path d="M11.223 20.667c0 0.675-0.547 1.223-1.223 1.223s-1.223-0.547-1.223-1.223c0-0.675 0.547-1.223 1.223-1.223s1.223 0.547 1.223 1.223z"></path>
<path d="M23.223 20.667c0 0.675-0.547 1.223-1.223 1.223s-1.223-0.547-1.223-1.223c0-0.675 0.547-1.223 1.223-1.223s1.223 0.547 1.223 1.223z"></path>
<path d="M27.228 8v3.34l0.703 0.067c0.136 0.013 0.262 0.044 0.363 0.099 0.085 0.047 0.168 0.12 0.23 0.267 0.032 0.078 0.045 0.165 0.039 0.254l-0.002 0.028v2.612c0 0.307-0.249 0.556-0.556 0.556h-0.777v8.777c0 0.689-0.378 1.293-0.952 1.627l-0.387 0.225v2.149c0 0.308-0.248 0.556-0.556 0.556h-1.333c-0.308 0-0.556-0.248-0.556-0.556v-2.111h-14.888v2.111c0 0.308-0.248 0.556-0.556 0.556h-1.333c-0.308 0-0.556-0.248-0.556-0.556v-2.152l-0.384-0.225c-0.569-0.334-0.944-0.937-0.944-1.623v-8.777h-0.782c-0.308 0-0.556-0.249-0.556-0.556v-2.667c0-0.292 0.222-0.532 0.512-0.555l0.001-0 0.019-0.001c0.017-0.001 0.040-0.002 0.066-0.003l0.741-0.034v-3.406c0-2.512 2.044-4.556 4.556-4.556h13.333c2.512 0 4.556 2.044 4.556 4.556zM5.895 24.777h20.216v-1.737l0.008-6.484h-20.223v8.221zM5.895 15.444h9.554v-6.888h-9.554v6.888zM16.561 15.444h9.554v-6.888h-9.554v6.888zM5.69 7.444h20.631l-0.682-1.169c-0.593-1.016-1.691-1.719-2.967-1.719h-13.333c-1.276 0-2.375 0.703-2.967 1.719l-0.682 1.169z"></path>
</symbol>
<symbol id="board" viewBox="0 0 32 32">
<path d="M8.777 16.777h3.779v1.112h-3.779v-1.112z"></path>
<path d="M26.667 23.223h-6.888l2.866 3.822-0.89 0.667-3.367-4.489h-4.777l-3.367 4.489-0.89-0.667 2.866-3.822h-6.888c-1.041 0-1.889-0.848-1.889-1.889v-14.667c0-1.041 0.848-1.889 1.889-1.889h21.333c1.041 0 1.89 0.848 1.89 1.889v14.667c0 1.041-0.848 1.889-1.889 1.889zM4.556 5.89v16.221h22.889l-0.001-16.221h-22.888z"></path>
</symbol>
<symbol id="copy" viewBox="0 0 32 32">
<path d="M8.777 16.777h6.446v1.112h-6.446v-1.112z"></path>
<path d="M8.777 22.111h6.446v1.112h-6.446v-1.112z"></path>
<path d="M26.667 20.556h-6.11v6.111c0 1.041-0.848 1.89-1.889 1.89h-13.333c-1.041 0-1.889-0.848-1.889-1.89v-13.333c0-1.041 0.848-1.889 1.889-1.889h6.111v-6.111c0-1.041 0.848-1.889 1.889-1.889h13.333c1.041 0 1.889 0.848 1.889 1.889v13.333c0 1.041-0.848 1.889-1.889 1.889zM4.556 12.556v14.888h14.89l-0.003-14.888h-14.887zM20.556 19.444h6.888v-14.888h-14.888v6.888h6.111c1.041 0 1.889 0.848 1.889 1.889v6.111z"></path>
</symbol>
<symbol id="cod" viewBox="0 0 32 32">
<path d="M16.196 3.409l12.235 8.118c0.112 0.071 0.18 0.2 0.177 0.322l-0 0.007v8.227l0 0.007c0.001 0.066-0.018 0.141-0.066 0.214l-0.001 0.001c-0.027 0.040-0.063 0.076-0.11 0.106l-0.005 0.003-12.237 8.121c-0.056 0.039-0.125 0.063-0.209 0.063-0.078 0-0.149-0.023-0.209-0.065l-0.005-0.003-12.224-8.112c-0.127-0.085-0.19-0.188-0.19-0.342v-8.22l-0-0.007c-0.001-0.069 0.017-0.14 0.062-0.209 0.032-0.047 0.071-0.083 0.105-0.104l0.011-0.006 12.242-8.124c0.104-0.072 0.314-0.072 0.42 0.001l0.004 0.003zM22.066 15.488l5.487-3.641-11.198-7.428v7.228l5.711 3.841zM15.604 11.648v-7.229l-11.195 7.43 5.484 3.639 5.711-3.841zM9.22 15.944l-5.113-3.395v6.834l5.113-3.439zM4.404 20.090l11.2 7.43v-7.338l-5.708-3.787-5.492 3.695zM10.574 15.938l5.404 3.59 5.409-3.59-5.409-3.637-5.404 3.637zM16.356 20.181v7.339l11.198-7.431-5.488-3.696-5.71 3.787zM22.742 15.944l5.115 3.439v-6.833l-5.115 3.394z"></path>
</symbol>
<symbol id="print" viewBox="0 0 32 32">
<path d="M24.236 10.934h-5.874v-1.189h5.874v1.189z"></path>
<path d="M8.188 25.99v-5.145h-2.641c-1.041 0-1.889-0.848-1.889-1.889v-10.248c0-1.776 1.447-3.223 3.223-3.223h18.667c1.776 0 3.223 1.447 3.223 3.223v10.248c0 1.041-0.848 1.889-1.89 1.889h-2.644v5.145c0 0.491-0.401 0.892-0.892 0.892h-14.265c-0.491 0-0.892-0.401-0.892-0.892zM24.236 15.063v4.67h3.421v-11.025c0-1.163-0.945-2.111-2.111-2.111h-18.667c-1.164 0-2.111 0.947-2.111 2.111v11.025h3.418v-4.67c0-0.491 0.401-0.892 0.892-0.892h14.265c0.491 0 0.892 0.401 0.892 0.892zM9.217 15.2v10.653h13.992l-0.002-10.653h-13.99z"></path>
<path d="M13.928 20.785l1.143 1.524 2.286-3.048 2.971 3.962h-8.229l1.829-2.438z"></path>
</symbol>
<symbol id="shirts" viewBox="0 0 32 32">
<path d="M19.12 16.060c0.84 0 1.521-0.681 1.521-1.521v-1.425h-3.042v1.425c0 0.84 0.681 1.521 1.521 1.521z"></path>
<path d="M10.965 4.285l-0.095 0.031c-1.838 0.595-5.445 1.776-7.198 2.351l-0.094 0.031c-0.548 0.18-0.911 0.688-0.911 1.264v4.955c0 0.867 0.815 1.504 1.656 1.293l3.677-0.919v13.419c0 0.736 0.596 1.333 1.333 1.333h13.333c0.737 0 1.333-0.597 1.333-1.333v-13.419l3.677 0.919c0.841 0.211 1.656-0.425 1.656-1.293v-4.955c0-0.576-0.363-1.084-0.912-1.264-1.715-0.562-5.419-1.776-7.291-2.382l-0.095-0.031c-0.61-0.197-1.004-0.323-1.033-0.327-0.001-0-0.002 0-0.002 0 0 0.393-0.057 0.772-0.162 1.131l-0.004 0.012c-0.492 1.652-2.022 2.857-3.834 2.857s-3.343-1.205-3.834-2.857l-0.003-0.012c-0.105-0.359-0.162-0.738-0.162-1.131 0 0-0.001-0-0.002 0-0.030 0.005-0.423 0.13-1.033 0.327zM22.976 6.118c1.811 0.591 3.916 1.281 5.089 1.665 0.074 0.024 0.125 0.090 0.125 0.178v4.955c0 0.125-0.116 0.215-0.236 0.185l-5.098-1.274v14.882c0 0.106-0.085 0.19-0.191 0.19h-13.333c-0.105 0-0.19-0.085-0.19-0.19v-14.882l-5.098 1.274c-0.119 0.030-0.236-0.060-0.236-0.185v-4.955c0-0.089 0.052-0.154 0.124-0.178l0.094-0.031c1.19-0.39 3.232-1.059 4.995-1.634 0.769-0.251 1.485-0.484 2.053-0.668 0.639 2.113 2.602 3.65 4.923 3.65s4.284-1.538 4.923-3.65c0.568 0.184 1.284 0.417 2.053 0.668z"></path>
</symbol>
<symbol id="arrow" viewBox="0 0 32 32">
<path d="M28.484 16.764h-28.202v-1.527h28.202l-10.753-10.753 1.079-1.079 12.596 12.596-12.596 12.596-1.079-1.079 10.753-10.753z"></path>
</symbol>
<symbol id="search" viewBox="0 0 32 32">
<path d="M13.867 26.133c2.461 0 4.724-0.847 6.529-2.251l5.861 5.861 1.885-1.885-5.861-5.861c1.405-1.807 2.252-4.069 2.252-6.531 0-5.881-4.785-10.667-10.667-10.667s-10.667 4.785-10.667 10.667c0 5.881 4.785 10.667 10.667 10.667zM13.867 7.467c4.412 0 8 3.588 8 8s-3.588 8-8 8c-4.412 0-8-3.588-8-8s3.588-8 8-8z"></path>
</symbol>
<symbol id="grav" viewBox="0 0 34 32">
<path d="M0 0v1.48h0.001v2.822c0 1.699 1.378 3.077 3.077 3.077l8.041-0-0.017 10.087c-0.002 0.641 0.299 1.245 0.812 1.629l4.249 3.188v7.642h-0.017v1.499h17.656v-1.499h-16.159v-7.618l4.23-3.211c0.504-0.383 0.801-0.979 0.803-1.611l0.017-10.106h8.031c1.699 0 3.077-1.378 3.077-3.077l-0-2.821h0.004v-1.48h-33.805zM1.5 5.879v-4.399h30.801v4.399l-30.801 0zM12.597 17.767l0.022-10.389h8.58l-0.014 6.574h-5.518v1.499h5.515l-0.005 2.307-4.242 3.279-4.338-3.27z"></path>
<path d="M4.487 29.925h7.114v1.548h-7.114v-1.548z"></path>
<path d="M6.65 21.532l-0.92 1.244 5.719 4.23 0.92-1.244-5.719-4.23z"></path>
<path d="M28.363 22.777l-0.92-1.244-5.719 4.23 0.92 1.244 5.719-4.23z"></path>
</symbol>
</defs>
</svg>
