<svg aria-hidden="true" style="position: absolute; width: 0; height: 0; overflow: hidden;" version="1.1" xmlns="http://www.w3.org/2000/svg" xmlns:xlink="http://www.w3.org/1999/xlink">
<defs>
<symbol id="grav" viewBox="0 0 34 32">
<path d="M0 0v1.48h0.001v2.822c0 1.699 1.378 3.077 3.077 3.077l8.041-0-0.017 10.087c-0.002 0.641 0.299 1.245 0.812 1.629l4.249 3.188v7.642h-0.017v1.499h17.656v-1.499h-16.159v-7.618l4.23-3.211c0.504-0.383 0.801-0.979 0.803-1.611l0.017-10.106h8.031c1.699 0 3.077-1.378 3.077-3.077l-0-2.821h0.004v-1.48h-33.805zM1.5 5.879v-4.399h30.801v4.399l-30.801 0zM12.597 17.767l0.022-10.389h8.58l-0.014 6.574h-5.518v1.499h5.515l-0.005 2.307-4.242 3.279-4.338-3.27z"></path>
<path d="M4.487 29.925h7.114v1.548h-7.114v-1.548z"></path>
<path d="M6.65 21.532l-0.92 1.244 5.719 4.23 0.92-1.244-5.719-4.23z"></path>
<path d="M28.363 22.777l-0.92-1.244-5.719 4.23 0.92 1.244 5.719-4.23z"></path>
</symbol>
</defs>
</svg>
